<svg width="1604" height="1008" viewBox="0 0 1604 1008" fill="none" xmlns="http://www.w3.org/2000/svg">
<rect width="1604" height="1008" fill="white"/>
<g clip-path="url(#clip0)">
<path opacity="0.1" d="M1313.5 1007.77C1370.14 1007.77 1416.06 1003.24 1416.06 997.66C1416.06 992.076 1370.14 987.55 1313.5 987.55C1256.86 987.55 1210.94 992.076 1210.94 997.66C1210.94 1003.24 1256.86 1007.77 1313.5 1007.77Z" fill="#6C63FF"/>
<path opacity="0.1" d="M1039.53 183.24C1084.7 166.45 1139.69 180.89 1186.65 201.95C1334.14 268.11 1441.59 393.7 1526.96 521.65C1557.87 567.98 1587.23 616.35 1598.85 668.07C1622.51 773.34 1560.8 882.32 1455.85 920.51C1420.16 933.51 1380.95 938.84 1341.68 941.81C1271.85 947.1 1199.55 945 1130.28 925.41C1080.88 911.41 1034.15 888.89 989.33 864.01C864.16 794.49 749.85 704.21 667.54 593.93C631.44 545.56 600.9 491.03 600.02 435.22C599.14 379.41 635.51 323.33 695.35 313.84C720.09 309.92 746.26 314 771.79 318.2C809.38 324.39 847.48 330.9 884.64 328.2C923.03 325.39 972.96 310.39 979.96 273.74C987.37 234.39 994.42 200.01 1039.53 183.24Z" fill="#6C63FF"/>
<path d="M844.02 939.81C844.02 939.81 892.28 936.9 886.59 970.72C886.59 970.72 887.72 976.72 882.3 979.41C882.3 979.41 882.22 976.9 877.35 977.75C875.62 978.047 873.861 978.135 872.11 978.01C869.742 977.846 867.492 976.916 865.7 975.36V975.36C865.7 975.36 852.13 969.76 846.86 947.58C846.86 947.58 842.95 942.75 843.11 941.5L851.25 944.98C851.25 944.98 848.47 950.86 850.66 955.74C850.66 955.74 850.92 945.2 852.49 945.44C852.8 945.49 856.72 947.44 856.72 947.44C856.72 947.44 851.93 957.67 855.54 965.11C855.54 965.11 854.17 952.5 858.21 948.18L863.95 951.53C863.95 951.53 858.35 962.1 862.15 970.72C862.15 970.72 861.15 957.49 865.15 952.34L870.35 956.34C870.35 956.34 865.09 966.76 868.3 973.92C868.3 973.92 868.71 958.51 871.47 957.35C871.47 957.35 876.02 961.35 876.71 963.01C876.71 963.01 873.11 970.57 875.34 974.56C875.34 974.56 876.71 964.3 877.84 964.25C877.84 964.25 882.36 971.05 882.84 975.71C882.84 975.71 882.64 968.78 878.93 963.6C878.93 963.6 883.31 964.35 885.87 967.19C885.87 967.19 885.16 962.38 877.82 961.96C877.82 961.96 874.08 956.81 873.07 956.49C873.07 956.49 880.38 955.88 884.81 957.85C884.81 957.85 880.91 953.31 871.73 955.37L866.6 951.19C866.6 951.19 876.23 949.87 880.3 951.33C880.3 951.33 875.61 947.33 865.22 950.24L859.64 946.9C859.64 946.9 867.84 945.13 872.73 945.77C872.73 945.77 867.57 942.99 858 946L854 944.21C854 944.21 860 943.03 861.77 942.84C863.54 942.65 863.62 942.17 863.62 942.17C859.814 941.532 855.905 941.965 852.33 943.42C852.33 943.42 843.87 940.39 844.02 939.81Z" fill="#F05E3C"/>
<path opacity="0.1" d="M877.26 988.13C896.126 988.13 911.42 985.547 911.42 982.36C911.42 979.173 896.126 976.59 877.26 976.59C858.394 976.59 843.1 979.173 843.1 982.36C843.1 985.547 858.394 988.13 877.26 988.13Z" fill="#6C63FF"/>
<path d="M779.37 917.06C779.37 917.06 806.58 915.42 803.37 934.49C803.54 935.457 803.397 936.452 802.964 937.333C802.531 938.214 801.829 938.934 800.96 939.39C800.96 939.39 800.91 937.98 798.17 938.46C797.196 938.627 796.205 938.674 795.22 938.6C793.882 938.518 792.609 937.993 791.6 937.11V937.11C791.6 937.11 783.96 933.94 780.96 921.44C780.96 921.44 778.76 918.71 778.84 918.01L783.44 920.01C783.44 920.01 781.87 923.33 783.1 926.08C783.1 926.08 783.25 920.13 784.1 920.27C784.28 920.27 786.49 921.42 786.49 921.42C786.49 921.42 783.79 927.19 785.83 931.42C785.83 931.42 785.05 924.31 787.33 921.87L790.56 923.76C790.56 923.76 787.41 929.76 789.56 934.58C789.56 934.58 789.01 927.12 791.25 924.22L794.18 926.5C794.18 926.5 791.18 932.37 793.03 936.41C793.03 936.41 793.26 927.72 794.82 927.07C794.82 927.07 797.38 929.33 797.77 930.26C797.77 930.26 795.77 934.52 797 936.77C797 936.77 797.77 930.99 798.41 930.96C798.41 930.96 800.96 934.79 801.22 937.42C801.092 934.991 800.334 932.637 799.02 930.59C800.491 930.859 801.851 931.555 802.93 932.59C802.93 932.59 802.54 929.88 798.39 929.64C798.39 929.64 796.28 926.73 795.72 926.56C795.72 926.56 799.84 926.21 802.34 927.32C802.34 927.32 800.14 924.76 794.96 925.92L792.07 923.56C792.07 923.56 797.5 922.82 799.8 923.64C799.8 923.64 797.15 921.38 791.29 923.03L788.15 921.14C790.569 920.612 793.046 920.4 795.52 920.51C795.52 920.51 792.62 918.94 787.22 920.64L784.97 919.64C784.97 919.64 788.36 918.97 789.35 918.87C790.34 918.77 790.4 918.49 790.4 918.49C788.252 918.134 786.047 918.38 784.03 919.2C784.03 919.2 779.29 917.39 779.37 917.06Z" fill="#F05E3C"/>
<path opacity="0.1" d="M798.11 944.3C808.747 944.3 817.37 942.84 817.37 941.04C817.37 939.24 808.747 937.78 798.11 937.78C787.473 937.78 778.85 939.24 778.85 941.04C778.85 942.84 787.473 944.3 798.11 944.3Z" fill="#6C63FF"/>
<path d="M1448.78 935.39C1448.78 935.39 1481.63 933.39 1477.78 956.39C1477.98 957.558 1477.8 958.759 1477.28 959.822C1476.75 960.884 1475.91 961.755 1474.86 962.31C1474.86 962.31 1474.8 960.6 1471.49 961.18C1470.31 961.381 1469.11 961.438 1467.92 961.35C1466.31 961.245 1464.78 960.613 1463.56 959.55V959.55C1463.56 959.55 1454.32 955.74 1450.73 940.64C1450.73 940.64 1448.07 937.35 1448.18 936.51L1453.72 938.87C1453.72 938.87 1451.83 942.87 1453.32 946.2C1453.32 946.2 1453.5 939.02 1454.56 939.2C1454.78 939.2 1457.44 940.58 1457.44 940.58C1457.44 940.58 1454.18 947.58 1456.64 952.58C1456.64 952.58 1455.71 944 1458.46 941.06L1462.36 943.33C1462.36 943.33 1458.55 950.53 1461.14 956.4C1461.14 956.4 1460.47 947.4 1463.14 943.89L1466.68 946.65C1466.68 946.65 1463.1 953.74 1465.28 958.65C1465.28 958.65 1465.57 948.17 1467.45 947.37C1467.45 947.37 1470.54 950.1 1471.01 951.22C1471.01 951.22 1468.56 956.37 1470.08 959.09C1470.08 959.09 1471.01 952.09 1471.78 952.09C1471.78 952.09 1474.86 956.72 1475.18 959.89C1475.03 956.959 1474.12 954.118 1472.53 951.65C1474.31 951.986 1475.95 952.835 1477.25 954.09C1477.25 954.09 1476.77 950.82 1471.76 950.53C1471.76 950.53 1469.22 947.02 1468.54 946.81C1468.54 946.81 1473.54 946.39 1476.54 947.73C1476.54 947.73 1473.88 944.65 1467.63 946.05L1464.14 943.2C1464.14 943.2 1470.69 942.3 1473.47 943.29C1473.47 943.29 1470.27 940.56 1463.2 942.55L1459.4 940.28C1459.4 940.28 1464.98 939.08 1468.31 939.51C1468.31 939.51 1464.8 937.62 1458.31 939.67L1455.59 938.45C1455.59 938.45 1459.68 937.64 1460.88 937.52C1462.08 937.4 1462.14 937.06 1462.14 937.06C1459.55 936.628 1456.89 936.922 1454.46 937.91C1454.46 937.91 1448.68 935.77 1448.78 935.39Z" fill="#6C63FF"/>
<path opacity="0.1" d="M1471.4 968.29C1484.24 968.29 1494.65 966.53 1494.65 964.36C1494.65 962.19 1484.24 960.43 1471.4 960.43C1458.56 960.43 1448.15 962.19 1448.15 964.36C1448.15 966.53 1458.56 968.29 1471.4 968.29Z" fill="#6C63FF"/>
<path d="M1416.05 692.62C1415.42 689.099 1415.06 685.536 1414.96 681.96C1414.96 677.67 1409.13 673.87 1409.13 673.87C1409.13 673.87 1405.53 665.54 1403.13 664.31C1400.73 663.08 1393.32 652.18 1393.32 652.18C1393.23 650.03 1392.45 647.966 1391.09 646.3C1388.87 643.382 1386.84 640.322 1385.02 637.14C1384.02 635.92 1384.52 635.06 1383.02 627.95C1382.94 627.58 1382.85 627.22 1382.74 626.88C1382.74 626.72 1382.64 626.58 1382.58 626.42C1384.17 624.823 1385.28 622.81 1385.78 620.612C1386.28 618.413 1386.15 616.119 1385.41 613.99C1385.14 613.144 1384.65 612.384 1383.99 611.79C1382.3 610.41 1379.6 610.98 1377.86 609.67L1379.71 601.49C1380.15 599.49 1380.38 596.96 1378.63 595.88C1377.97 595.568 1377.28 595.337 1376.57 595.19C1373.57 594.19 1371.83 591.02 1371.05 587.97C1370.3 585.032 1370.1 581.981 1370.45 578.97C1370.79 576.07 1371.64 573.25 1371.95 570.34C1372.51 564.958 1371.22 559.544 1368.28 555C1367.14 553.039 1365.45 551.449 1363.43 550.42C1361.58 549.59 1359.43 549.42 1357.7 548.42C1353.98 546.05 1354.17 540.42 1351.2 537.19C1348.23 533.96 1342.97 533.97 1338.64 535.08C1334.31 536.19 1330 538.08 1325.56 537.61C1322.7 537.29 1320.02 535.99 1317.15 535.69C1316.33 535.612 1315.5 535.649 1314.69 535.8V535.71C1312.57 536.09 1310.62 537.27 1310.12 539.28C1310.01 539.758 1309.96 540.249 1309.98 540.74C1309.98 541.91 1310.26 543.13 1310.28 544.25C1310.32 544.695 1310.26 545.143 1310.13 545.567C1309.99 545.991 1309.76 546.383 1309.47 546.72C1308.9 547.33 1308.06 547.65 1307.47 548.28C1307.23 548.521 1307.04 548.808 1306.92 549.125C1306.79 549.441 1306.73 549.78 1306.74 550.12C1306.74 551.9 1308.96 553.47 1310.45 554.19H1310.51C1310.11 554.59 1309.71 555.01 1309.34 555.44C1305.07 560.264 1302.71 566.487 1302.72 572.93C1302.76 578.134 1304.31 583.215 1307.2 587.546C1310.08 591.877 1314.17 595.271 1318.96 597.31L1318.75 597.96C1318.33 599.246 1317.84 600.508 1317.28 601.74C1316.25 601.392 1315.15 601.274 1314.06 601.395C1312.98 601.516 1311.93 601.873 1311 602.44C1308.14 604.44 1302.55 604.28 1301.06 603.91C1299.57 603.54 1284.06 601.58 1282.81 602.07C1281.56 602.56 1279.09 600.36 1277.48 603.3C1275.87 606.24 1275.12 607.83 1273.48 608.57C1271.84 609.31 1269.01 611.63 1269.39 612.12C1269.77 612.61 1265.29 615.55 1265.29 615.55C1265.29 615.55 1261.44 619.55 1259.21 620.08C1256.98 620.61 1252.26 623.64 1252.26 623.64L1246.79 627.92C1246.79 627.92 1242.7 628.54 1243.94 625.72C1245.18 622.9 1241.7 619.35 1241.7 619.35C1241.7 619.35 1234.75 605.26 1234.75 602.35C1234.75 599.44 1229.04 587.03 1229.04 587.03L1228.34 586.96L1228.02 586.05C1226.97 583.1 1225.61 579.48 1224.57 577.36C1222.57 573.31 1221.34 572.89 1221.34 572.89C1221.34 572.89 1197.26 554.81 1181.62 560.32C1165.98 565.83 1210.17 582.25 1214.14 583.97C1215.53 584.57 1216.53 586.51 1217.23 588.78C1213.71 590.479 1210.74 593.146 1208.68 596.47C1208.68 596.47 1218.24 617.66 1218.49 622.93C1218.74 628.2 1225.07 642.93 1225.07 642.93C1225.07 642.93 1227.43 653.84 1240.21 653.22C1240.21 653.22 1257.84 656.46 1261.69 653.22C1265.54 649.98 1269.01 647.44 1270.88 647.07C1272.26 646.618 1273.46 645.765 1274.35 644.62C1274.35 644.62 1268.52 681.37 1265.66 684.56C1262.8 687.75 1237.53 729.01 1246.6 736.39C1253.78 741.952 1261.37 746.966 1269.31 751.39C1270.08 751.77 1272.39 747.92 1275.69 745.19C1275.69 745.88 1275.69 746.58 1275.69 747.32C1275.75 762 1277.69 784.32 1280.37 789.32C1284.37 796.67 1282.73 810.88 1282.73 810.88C1284.83 811.87 1287.12 812.418 1289.44 812.49C1289.56 812.97 1289.7 813.49 1289.83 813.99C1292.02 822.26 1295.57 835.05 1297.38 838.45C1300.11 843.6 1302.09 859.9 1302.09 859.9C1302.09 859.9 1303.71 875.9 1303.09 878.15C1302.85 879 1303.9 885.66 1305.55 894.15C1304.55 905.64 1302.65 927.79 1302.33 935.8C1302.33 935.95 1302.33 936.1 1302.33 936.24V936.38C1302.33 936.47 1302.33 936.56 1302.33 936.65C1302.33 936.83 1302.33 936.99 1302.33 937.14C1302.3 937.644 1302.32 938.15 1302.39 938.65C1302.51 939.413 1302.46 940.194 1302.22 940.93C1301.51 943.144 1300.61 945.293 1299.53 947.35C1299.07 948.361 1298.67 949.396 1298.33 950.45C1297.33 950.89 1296.11 951.96 1295.43 954.57C1294.19 959.35 1292.33 972.57 1292.33 972.57C1292.33 972.57 1291.58 980.66 1290.1 982.5C1288.62 984.34 1287.1 995.85 1297.67 997.32C1308.24 998.79 1312.81 991.72 1312.81 991.72L1312.44 959.64V959.58C1312.65 959.31 1312.84 959.019 1312.99 958.71V958.63C1313.06 958.48 1313.14 958.32 1313.21 958.14L1313.3 957.9L1313.46 957.51C1313.45 957.464 1313.45 957.416 1313.46 957.37C1314.49 954.297 1314.79 951.03 1314.36 947.82V947.66V947.41C1314.36 947.33 1314.36 947.24 1314.36 947.16V946.66C1314.36 946.6 1314.36 946.53 1314.36 946.47C1314.36 946.257 1314.38 946.037 1314.42 945.81C1314.42 945.81 1314.42 945.73 1314.42 945.69L1314.48 945.3V945.13C1314.48 945 1314.48 944.87 1314.56 944.73C1314.56 944.697 1314.56 944.663 1314.56 944.63C1314.66 944.17 1314.78 943.63 1314.91 943.19V943.08L1315.06 942.6C1315.21 942.09 1315.38 941.6 1315.56 941.06V940.96C1315.56 940.8 1315.67 940.64 1315.73 940.49V940.43C1315.91 939.94 1316.1 939.43 1316.28 939.01L1316.33 938.88L1316.49 938.48L1316.54 938.36L1316.92 937.47L1319.85 946.52C1319.85 946.52 1321.47 953.26 1320.6 954.85C1319.73 956.44 1321.6 963.06 1322.83 963.18L1321.68 971.51C1321.06 976.103 1320.69 980.727 1320.57 985.36C1320.49 985.89 1320.41 986.36 1320.35 986.68C1319.55 990.95 1321.47 997.57 1321.47 997.57C1331.27 1009.16 1342.95 998.47 1342.95 998.47C1342.95 998.47 1344.31 992.34 1342.95 991.12C1341.59 989.9 1342.2 985.48 1342.2 985.48C1342.2 985.48 1342.82 974.57 1342.94 966.61C1343.06 958.65 1336.43 951.61 1336.43 951.61L1336.06 951.94C1334.85 948.82 1333.47 945.18 1333.76 943.55C1334.26 940.73 1332.39 910.96 1332.39 910.96C1333.08 902.979 1333.23 894.961 1332.83 886.96V886.96C1332.99 885.61 1333.14 884.28 1333.29 882.96C1334.04 876.56 1334.65 871.09 1334.89 868.22V867.88C1334.95 867.11 1334.98 866.56 1334.97 866.3C1334.97 865.3 1334.97 864.16 1335.07 862.91C1335.3 859.47 1335.84 855.64 1335.84 855.64L1338.44 839.83C1338.44 839.83 1340.44 832.11 1343.29 827.83L1343.63 827.29C1343.74 827.1 1343.85 826.89 1343.97 826.67L1344.02 826.58C1344.13 826.37 1344.25 826.15 1344.36 825.92L1344.41 825.83C1344.81 825.04 1345.24 824.13 1345.69 823.13C1345.69 823.05 1345.76 822.98 1345.79 822.9L1346.13 822.14C1346.13 822.04 1346.21 821.94 1346.26 821.84C1346.31 821.74 1346.47 821.33 1346.58 821.08C1346.63 820.979 1346.67 820.876 1346.71 820.77C1346.84 820.47 1346.98 820.16 1347.11 819.84L1347.3 819.38C1347.39 819.15 1347.49 818.92 1347.59 818.69L1347.83 818.08C1347.9 817.93 1347.96 817.78 1348.02 817.63L1348.29 816.94C1348.29 816.84 1348.38 816.73 1348.42 816.63C1349.13 814.86 1349.81 813.11 1350.42 811.52C1350.61 811.02 1350.8 810.52 1350.97 810.08C1357.33 810.47 1361.65 810.82 1361.65 810.82C1361.65 810.82 1363.65 796.49 1363.01 787.06C1362.59 780.62 1363.79 772.52 1364.58 768.06C1364.67 767.57 1364.75 767.13 1364.83 766.73L1365 766.87C1368.11 769.32 1370.34 761.23 1370.34 761.23C1370.34 761.23 1369.5 753.68 1368.34 744.53L1368.22 743.62C1370.01 744.002 1371.83 744.279 1373.65 744.45C1373.65 744.45 1374.65 744.36 1376.02 744.19C1379.81 746.384 1383.81 748.193 1387.96 749.59L1394.57 737.39C1395.81 734.861 1397.27 732.442 1398.92 730.16C1400.92 727.71 1407.98 719.87 1407.86 718.4C1407.74 716.93 1410.22 708.47 1412.7 704.67C1415.18 700.87 1416.17 693.23 1416.05 692.62ZM1388.49 701.93C1385.88 703.03 1383.4 709.16 1383.28 711C1383.16 712.84 1380.42 720.92 1377.57 721.9C1374.94 722.8 1369.92 727.42 1369.12 728.16C1368.3 728.23 1367.37 728.34 1366.4 728.5C1365.31 720.77 1364.23 714.37 1363.54 713.08C1361.54 709.4 1365.73 697.64 1365.73 697.64C1365.73 697.64 1366.14 685.76 1368.73 682.94C1371.32 680.12 1370.73 673.01 1370.73 673.01C1370.73 673.01 1371.35 670.07 1371.6 668.73C1371.85 667.39 1375.29 668.73 1375.32 668.73C1375.32 668.73 1382.02 672.4 1383.02 677.91C1384.02 683.42 1391.34 692.98 1391.34 692.98C1391.34 692.98 1390.22 696.29 1391.34 697.98C1392.46 699.67 1391.1 700.83 1388.49 701.93V701.93Z" fill="url(#paint0_linear)"/>
<path d="M1208.96 597.22C1211 593.858 1213.98 591.171 1217.54 589.495C1221.1 587.82 1225.07 587.23 1228.96 587.8V602.11H1220.27L1213.47 600.39L1208.96 597.22Z" fill="#4C4981"/>
<path opacity="0.1" d="M1208.96 597.22C1211 593.858 1213.98 591.171 1217.54 589.495C1221.1 587.82 1225.07 587.23 1228.96 587.8V602.11H1220.27L1213.47 600.39L1208.96 597.22Z" fill="black"/>
<path d="M1229.61 591.59L1218.96 599.05C1218.96 599.05 1218.87 597.56 1218.6 595.52C1218.07 591.66 1216.88 585.87 1214.31 584.75C1210.4 583.03 1166.87 566.65 1182.31 561.14C1197.75 555.63 1221.44 573.69 1221.44 573.69C1221.44 573.69 1222.66 574.11 1224.61 578.14C1225.61 580.26 1226.98 583.87 1228.01 586.82C1228.96 589.48 1229.61 591.59 1229.61 591.59Z" fill="#AE6E79"/>
<path d="M1314.69 603.08L1315.9 602.51L1319.3 606.39L1316.52 612.32L1311.78 610.42L1312.88 605.68L1314.69 603.08Z" fill="#4C4981"/>
<path d="M1298.58 950.39C1298.58 950.39 1295.52 950.03 1294.3 954.8C1293.08 959.57 1291.24 972.8 1291.24 972.8C1291.24 972.8 1290.51 980.87 1289.04 982.71C1287.57 984.55 1286.11 996.04 1296.5 997.5C1306.89 998.96 1311.42 991.91 1311.42 991.91L1311.05 959.84L1298.58 950.39Z" fill="#444053"/>
<path d="M1334.84 951.83C1334.84 951.83 1341.38 958.83 1341.26 966.77C1341.14 974.71 1340.52 985.6 1340.52 985.6C1340.52 985.6 1339.92 990.01 1341.26 991.23C1342.6 992.45 1341.26 998.57 1341.26 998.57C1341.26 998.57 1329.76 1009.24 1320.1 997.67C1320.1 997.67 1318.22 991.06 1319 986.8C1319.78 982.54 1321.96 963.39 1321.96 963.39L1334.84 951.83Z" fill="#444053"/>
<path d="M1351.04 805.6C1351.04 805.6 1344.44 824.06 1341.62 828.34C1338.8 832.62 1336.86 840.34 1336.86 840.34L1334.29 856.11C1333.79 859.636 1333.5 863.189 1333.43 866.75C1333.55 870.3 1327.07 922.02 1327.07 922.02L1316.8 935.11C1316.8 935.11 1312.28 944.28 1313.01 948.11C1313.74 951.94 1312.52 958.02 1311.01 959.85C1311.01 959.85 1310.77 971.85 1310.4 974.52C1310.03 977.19 1311.75 984.8 1310.4 986.14C1309.05 987.48 1291.08 986.88 1290.59 984.67C1290.1 982.46 1292.79 971.83 1292.79 971.83L1294.38 961.56C1294.38 961.56 1297.56 955.94 1296.83 954.1C1296.1 952.26 1298.17 947.99 1298.29 947.62C1298.41 947.25 1301.72 941.26 1301.11 938.94C1300.5 936.62 1304.96 887.28 1304.96 887.28L1317.55 798.87L1351.04 805.6Z" fill="#AE6E79"/>
<path opacity="0.1" d="M1351.04 805.6C1351.04 805.6 1350.04 808.38 1348.67 812.03C1346.49 817.79 1343.35 825.72 1341.62 828.34C1338.81 832.62 1336.85 840.34 1336.85 840.34L1334.28 856.12C1333.78 859.646 1333.5 863.199 1333.43 866.76C1333.43 868.16 1332.49 877.09 1331.29 887.38C1329.44 903.11 1327.07 922.03 1327.07 922.03L1316.8 935.12C1316.8 935.12 1316.28 936.12 1315.63 937.7C1314.34 940.7 1312.52 945.57 1313.01 948.08C1313.74 951.87 1312.52 957.98 1311.01 959.82C1311.01 959.82 1310.76 971.82 1310.4 974.49C1310.04 977.16 1311.75 984.76 1310.4 986.11C1309.05 987.46 1291.08 986.85 1290.59 984.65C1290.1 982.45 1292.79 971.81 1292.79 971.81L1294.38 961.53C1294.38 961.53 1297.56 955.91 1296.82 954.07C1296.08 952.23 1298.17 947.96 1298.29 947.59C1298.41 947.22 1301.72 941.23 1301.11 938.91C1300.64 937.14 1303.11 908.17 1304.26 894.43C1304.65 890.11 1304.9 887.3 1304.9 887.3L1315.73 811.24L1316.61 805.11L1317.49 798.89L1351.04 805.6Z" fill="black"/>
<path d="M1340.04 989.51C1340.15 990.86 1322.79 992.82 1320.31 991.35C1317.83 989.88 1320.31 971.66 1320.31 971.66L1321.44 963.35C1320.23 963.22 1318.39 956.62 1319.24 955.03C1320.09 953.44 1318.51 946.72 1318.51 946.72L1315.63 937.72L1313.87 932.21C1311.01 925.9 1306.87 907.9 1304.3 894.46C1302.68 886.02 1301.65 879.37 1301.88 878.52C1302.49 876.32 1300.88 860.3 1300.88 860.3C1300.88 860.3 1298.88 844.03 1296.24 838.9C1294.45 835.5 1290.96 822.73 1288.8 814.49C1287.7 810.26 1286.94 807.22 1286.94 807.22C1286.94 807.22 1305.42 805.67 1316.63 805.13C1321.78 804.88 1325.4 804.85 1324.98 805.27C1324.56 805.69 1324.45 807.93 1324.47 811.17C1324.52 819.56 1325.69 834.32 1326.93 838.29C1328.64 843.79 1330.35 860.29 1329.62 861.89C1328.89 863.49 1329.13 874.12 1329.13 874.12C1330.39 878.438 1331.12 882.895 1331.29 887.39C1331.68 895.354 1331.54 903.335 1330.87 911.28C1330.87 911.28 1332.7 941 1332.21 943.81C1331.72 946.62 1336.12 955.43 1336.12 957.14C1336.12 958.85 1337.34 970.47 1337.34 970.47C1337.34 970.47 1339.96 988.17 1340.04 989.51Z" fill="#AE6E79"/>
<path d="M1349.69 632.31L1347.59 634.58L1346.22 636.06L1338.22 644.66L1317.55 646.99L1306.55 644.05L1303.83 643.32C1303.83 643.32 1303.83 637.8 1304.32 631.18C1305.02 622.69 1306.69 612.38 1310.68 609.57C1312.68 608.006 1314.27 605.986 1315.33 603.68C1316.13 602.09 1316.8 600.438 1317.33 598.74C1317.41 598.52 1317.47 598.31 1317.54 598.09C1318.44 595.126 1319.09 592.092 1319.48 589.02C1319.48 589.02 1322.12 587.56 1325.79 585.86C1335.36 581.39 1351.89 575.22 1346.14 589.02C1345.29 591.041 1344.57 593.111 1343.98 595.22C1343.89 595.53 1343.81 595.84 1343.74 596.14C1341.82 603.82 1343.09 608.48 1344.52 611.05C1344.76 611.495 1345.04 611.92 1345.35 612.32C1345.74 612.857 1346.21 613.332 1346.74 613.73L1349.12 628.84L1349.32 630.09L1349.69 632.31Z" fill="#AE6E79"/>
<path opacity="0.1" d="M1346.15 589.76C1345.06 592.38 1346.68 587.62 1346.15 589.76C1341.79 592.86 1331.52 601.69 1325.75 601.69C1321.85 601.69 1320.68 600.98 1317.34 599.47C1318.35 596.306 1319.07 593.055 1319.49 589.76C1319.49 589.76 1354.1 570.68 1346.15 589.76Z" fill="black"/>
<path d="M1354.96 573.69C1354.95 580.276 1352.51 586.627 1348.11 591.521C1343.7 596.415 1337.64 599.506 1331.09 600.2C1330.17 600.29 1329.24 600.35 1328.3 600.35C1323.03 600.35 1317.87 598.786 1313.49 595.857C1309.1 592.928 1305.69 588.764 1303.67 583.892C1301.65 579.021 1301.12 573.66 1302.15 568.489C1303.18 563.317 1305.72 558.567 1309.45 554.839C1313.18 551.11 1317.93 548.571 1323.1 547.542C1328.27 546.514 1333.63 547.042 1338.5 549.059C1343.37 551.077 1347.54 554.494 1350.47 558.879C1353.4 563.263 1354.96 568.417 1354.96 573.69V573.69Z" fill="#AE6E79"/>
<path opacity="0.1" d="M1358.75 691.87L1354.95 701.78C1354.95 701.78 1351.86 701.91 1347.04 702.06C1330.77 702.58 1294.92 703.24 1293.32 699.06C1292.96 698 1292.77 696.889 1292.76 695.77C1292.55 689.4 1295.52 679.62 1295.52 679.62C1295.52 679.62 1297.23 660.05 1297.23 659.2C1297.23 658.35 1295.76 644.64 1295.76 644.64L1298.7 633.64L1306.89 627.89C1306.89 627.89 1310.56 633.52 1312.76 634C1314.96 634.48 1317.9 637.19 1317.9 637.19C1317.9 637.19 1325.11 641.59 1327.44 639.14C1329.77 636.69 1347.86 625.93 1347.86 625.93L1357.4 636.45L1358.75 691.87Z" fill="black"/>
<path d="M1358.75 693.39L1354.95 703.29C1354.95 703.29 1351.86 703.43 1347.04 703.58H1346.57C1344.49 703.65 1342.11 703.72 1339.57 703.77C1326.64 704.07 1308.83 704.15 1299.52 702.77C1296.02 702.27 1293.73 701.55 1293.35 700.57C1293.14 699.981 1292.99 699.371 1292.91 698.75C1292.85 698.29 1292.81 697.75 1292.79 697.28C1292.58 690.91 1295.55 681.13 1295.55 681.13C1295.55 681.13 1297.26 661.56 1297.26 660.71C1297.26 659.86 1295.79 646.15 1295.79 646.15L1298.73 635.15L1304.36 631.21L1306.92 629.41C1307.78 630.699 1308.72 631.935 1309.73 633.11C1310.52 634.169 1311.58 635.001 1312.79 635.52C1315 636.01 1317.93 638.71 1317.93 638.71C1317.93 638.71 1325.14 643.11 1327.47 640.66C1329.24 638.79 1340.24 632.06 1345.32 628.99C1346.88 628.04 1347.89 627.45 1347.89 627.45L1349.17 628.87L1357.43 637.97L1358.75 693.39Z" fill="white"/>
<path opacity="0.1" d="M1229.61 591.59L1218.96 599.05C1218.96 599.05 1218.87 597.56 1218.6 595.52C1223.86 593.3 1227.06 588.39 1227.98 586.82C1228.96 589.48 1229.61 591.59 1229.61 591.59Z" fill="black"/>
<path d="M1267.03 616.91L1264.71 616.29C1264.71 616.29 1260.91 620.29 1258.71 620.82C1256.51 621.35 1251.87 624.36 1251.87 624.36L1246.48 628.64C1246.48 628.64 1242.48 629.26 1243.67 626.44C1244.86 623.62 1241.47 620.08 1241.47 620.08C1241.47 620.08 1234.62 606.02 1234.62 603.08C1234.62 600.14 1228.96 587.8 1228.96 587.8C1228.96 587.8 1221.86 601.62 1208.9 597.22C1208.9 597.22 1218.32 618.37 1218.56 623.63C1218.8 628.89 1225.04 643.56 1225.04 643.56C1225.04 643.56 1227.37 654.45 1239.96 653.84C1239.96 653.84 1257.33 657.07 1261.12 653.84C1264.91 650.61 1268.33 648.07 1270.12 647.7C1271.91 647.33 1273.54 645.26 1273.54 645.26V630.72L1267.03 616.91Z" fill="#F05E3C"/>
<path opacity="0.1" d="M1245.26 630.72C1245.26 630.72 1248.32 642.1 1246.36 643.32L1245.26 630.72Z" fill="black"/>
<path opacity="0.1" d="M1347.04 703.53C1330.77 704.05 1294.92 704.7 1293.32 700.53C1292.96 699.47 1292.77 698.359 1292.76 697.24L1345.91 700.04L1347.04 703.53Z" fill="black"/>
<path opacity="0.1" d="M1351.04 805.6C1351.04 805.6 1350.04 808.38 1348.67 812.03C1341.92 811.62 1332.98 811.19 1324.49 811.13C1321.49 811.13 1318.55 811.13 1315.77 811.23C1309.87 811.41 1304.77 811.89 1301.52 812.81C1297.41 814.075 1293.12 814.63 1288.82 814.45C1287.72 810.22 1286.96 807.18 1286.96 807.18C1286.96 807.18 1305.44 805.63 1316.65 805.09L1317.53 798.87L1351.04 805.6Z" fill="black"/>
<path d="M1365.35 760.84L1363.27 765.24C1363.27 765.24 1362.98 766.55 1362.61 768.63C1361.83 773.11 1360.61 781.19 1361.07 787.63C1361.68 797.05 1359.72 811.35 1359.72 811.35C1359.72 811.35 1314.72 807.56 1301.52 811.35C1288.32 815.14 1281.82 811.35 1281.82 811.35C1281.82 811.35 1283.42 797.17 1279.5 789.83C1276.83 784.83 1274.95 762.51 1274.89 747.83C1274.89 741.06 1275.23 735.93 1276.08 734.89C1278.77 731.59 1290.26 698.57 1290.26 698.57L1292.88 698.71L1299.88 699.08L1339.68 701.18L1345.93 701.51L1346.59 703.51L1365.35 760.84Z" fill="#444053"/>
<path d="M1385.16 746.16L1385.53 750.08C1385.53 750.08 1365.82 743.66 1366.82 735.77C1367.82 727.88 1366.82 728.77 1366.82 728.77L1382.66 730.11L1385.16 746.16Z" fill="#4C4981"/>
<path opacity="0.1" d="M1385.16 746.16L1385.53 750.08C1385.53 750.08 1365.82 743.66 1366.82 735.77C1367.82 727.88 1366.82 728.77 1366.82 728.77L1382.66 730.11L1385.16 746.16Z" fill="black"/>
<path opacity="0.1" d="M1258.41 633.88C1260.42 635.59 1262.79 636.824 1265.35 637.49C1264.61 637.329 1263.92 636.986 1263.35 636.49C1261.94 635.49 1260.6 634.4 1259.24 633.34C1258.14 632.48 1256.77 631.05 1255.42 630.7C1256.3 631.861 1257.31 632.926 1258.41 633.88V633.88Z" fill="black"/>
<path opacity="0.1" d="M1258.71 639.03C1259.34 639.746 1259.86 640.56 1260.23 641.44C1260.86 643.929 1260.82 646.54 1260.12 649.01L1256.96 641.39C1256.41 640.09 1255.86 638.79 1255.2 637.55C1254.91 637.02 1253.09 634.81 1253.3 634.35C1253.86 633.05 1258.12 638.3 1258.71 639.03Z" fill="black"/>
<path opacity="0.1" d="M1346.88 681.23C1349.03 680.969 1351.05 680.027 1352.63 678.54C1349.38 678.95 1346.3 680.23 1343.1 680.9C1340.13 681.59 1337.01 681.303 1334.22 680.08C1337.9 681.88 1342.96 681.94 1346.88 681.23Z" fill="black"/>
<path opacity="0.1" d="M1337.69 658.84C1337.11 658.927 1336.51 658.779 1336.04 658.43C1333.6 657.03 1331.19 655.57 1328.82 654.05C1326.51 652.56 1323.72 651.05 1321.75 649.17C1326.6 653.55 1331.12 657.25 1337.69 658.84Z" fill="black"/>
<path opacity="0.1" d="M1344.47 684.78C1345.75 684.838 1347.03 684.734 1348.29 684.47C1349.56 684.206 1350.68 683.47 1351.43 682.41C1350.98 682.305 1350.5 682.381 1350.1 682.62C1346.23 684.251 1341.97 684.76 1337.82 684.09C1339.81 684.94 1342.36 684.77 1344.47 684.78Z" fill="black"/>
<path opacity="0.1" d="M1321.31 741.56C1318.76 742.328 1316.15 742.84 1313.5 743.09C1311.44 743.185 1309.38 743.145 1307.32 742.97L1297.32 742.34L1292.32 742.02C1291.73 742.02 1289.32 742.02 1290.51 740.83C1291.11 740.25 1294.45 740.62 1295.31 740.59C1296.97 740.537 1298.64 740.507 1300.31 740.5C1303.62 740.5 1306.94 740.5 1310.25 740.7C1313.96 740.88 1317.61 741.16 1321.31 741.56Z" fill="black"/>
<path opacity="0.1" d="M1309.72 746.51C1308.02 746.44 1305.83 747.45 1304.08 747.67C1302.12 747.902 1300.15 747.978 1298.18 747.9C1294.28 747.806 1290.43 747.021 1286.81 745.58C1294.44 745.97 1302.09 746.2 1309.72 746.51Z" fill="black"/>
<path opacity="0.1" d="M1288.3 751.75C1289.04 751.899 1289.77 752.1 1290.48 752.35C1294.7 753.55 1299.19 752.49 1303.48 751.43C1302.41 753.04 1300.48 753.73 1298.55 754.17C1295.41 754.965 1292.14 755.085 1288.95 754.52C1287.95 754.32 1285.44 753.96 1284.95 752.92C1284.13 751.39 1287.36 751.6 1288.3 751.75Z" fill="black"/>
<path opacity="0.1" d="M1311.96 759.64C1313.23 759.899 1314.47 760.233 1315.7 760.64C1320.45 761.82 1325.38 760.2 1330.15 759.11C1335.88 757.808 1341.76 757.263 1347.64 757.49C1346.59 757.49 1344.92 758.41 1343.89 758.72C1342.54 759.13 1341.17 759.51 1339.8 759.85C1337.11 760.51 1334.38 761.05 1331.63 761.44C1326.08 762.243 1320.46 762.487 1314.86 762.17C1312.3 762.03 1307.86 762.29 1305.67 761C1307.56 759.875 1309.77 759.398 1311.96 759.64Z" fill="black"/>
<path opacity="0.1" d="M1313.75 608.82C1313.75 608.82 1313.99 620.08 1312.16 625.22C1311.58 626.82 1310.68 629.77 1309.7 633.08C1308.63 636.75 1307.46 640.86 1306.56 644.08C1305.66 647.3 1305.06 649.46 1305.06 649.46C1305.06 649.46 1300.93 683.1 1299.86 699.13C1299.86 699.41 1299.86 699.7 1299.8 699.97C1299.74 700.87 1299.64 701.81 1299.49 702.78C1297.11 718.7 1283.38 743.25 1278.77 745.21C1277.33 745.87 1276.02 746.773 1274.89 747.88C1274.89 741.11 1275.23 735.98 1276.08 734.94C1278.77 731.64 1290.26 698.62 1290.26 698.62L1292.88 698.76C1292.82 698.3 1292.78 697.76 1292.76 697.29C1292.55 690.92 1295.52 681.14 1295.52 681.14C1295.52 681.14 1297.23 661.57 1297.23 660.72C1297.23 659.87 1295.76 646.16 1295.76 646.16L1298.7 635.16L1304.33 631.22C1305.03 622.73 1306.7 612.42 1310.69 609.61C1312.69 608.046 1314.28 606.026 1315.34 603.72C1316.13 603.83 1314.69 603.13 1314.69 603.13L1313.75 608.82Z" fill="black"/>
<path d="M1315.9 602.51C1314.88 602.161 1313.8 602.043 1312.73 602.164C1311.66 602.286 1310.63 602.643 1309.71 603.21C1306.89 605.21 1301.39 605.04 1299.92 604.68C1298.45 604.32 1283.17 602.35 1281.92 602.84C1280.67 603.33 1278.25 601.13 1276.66 604.07C1275.07 607.01 1274.34 608.59 1272.75 609.32C1271.16 610.05 1268.34 612.38 1268.75 612.87C1269.16 613.36 1264.75 616.29 1264.75 616.29L1273.67 645.29C1273.67 645.29 1267.92 681.97 1265.11 685.15C1262.3 688.33 1237.35 729.54 1246.28 736.88C1253.35 742.439 1260.83 747.453 1268.66 751.88C1269.66 752.37 1273.18 745.77 1278.07 743.69C1282.96 741.61 1298.13 714.09 1299.07 698.44C1300.01 682.79 1304.33 647.94 1304.33 647.94C1304.33 647.94 1309.59 628.86 1311.42 623.72C1313.25 618.58 1313.01 607.32 1313.01 607.32L1315.9 602.51Z" fill="#F05E3C"/>
<path opacity="0.1" d="M1365.35 760.84L1363.27 765.24C1363.27 765.24 1362.98 766.55 1362.61 768.63C1362.24 768.583 1361.89 768.427 1361.61 768.18C1358.55 765.73 1340.61 747.27 1339.72 730.88C1339.09 718.79 1339.39 708.37 1339.59 703.73C1339.65 702.27 1339.71 701.39 1339.71 701.2C1339.71 701.2 1353.65 684.32 1352.06 678.34C1350.47 672.36 1346.8 640.34 1346.8 640.34L1346.26 636.14L1345.33 629.04L1343.11 611.86L1345.41 612.4C1345.8 612.937 1346.27 613.412 1346.8 613.81L1349.18 628.92L1357.44 638.02L1358.79 693.42L1354.99 703.32C1354.99 703.32 1351.9 703.46 1347.08 703.61H1346.61L1365.35 760.84Z" fill="black"/>
<path d="M1373.05 669.39C1373.05 669.39 1369.63 668.04 1369.39 669.39C1369.15 670.74 1368.53 673.66 1368.53 673.66C1368.53 673.66 1369.14 680.76 1366.53 683.57C1363.92 686.38 1363.53 698.24 1363.53 698.24C1363.53 698.24 1359.41 709.98 1361.36 713.65C1362.07 714.98 1363.17 721.65 1364.27 729.65C1364.97 734.65 1365.66 740.14 1366.27 745.16C1367.38 754.28 1368.21 761.83 1368.21 761.83C1368.21 761.83 1366 769.9 1362.94 767.45C1359.88 765 1341.94 746.54 1341.06 730.15C1340.46 718.64 1340.7 708.64 1340.9 703.71C1340.98 701.62 1341.06 700.44 1341.06 700.44C1341.06 700.44 1355 683.56 1353.41 677.57C1351.82 671.58 1348.15 639.57 1348.15 639.57L1347.51 634.62L1346.82 629.3L1346.66 628.13L1344.45 611.13C1344.84 611.22 1358.56 614.32 1360.37 616.13C1362.18 617.94 1373.37 620.53 1373.37 620.53C1375.06 620.988 1376.59 621.89 1377.81 623.142C1379.03 624.395 1379.9 625.951 1380.31 627.65C1380.42 627.99 1380.5 628.35 1380.58 628.72C1382.05 635.82 1381.58 636.67 1382.58 637.9C1383.58 639.13 1373.05 669.39 1373.05 669.39Z" fill="#F05E3C"/>
<path opacity="0.1" d="M1366.35 745.15C1361.35 744.15 1353.93 741.84 1354.1 736.74C1354.25 731.97 1359.99 730.25 1364.34 729.64C1365.04 734.62 1365.73 740.13 1366.35 745.15Z" fill="black"/>
<path d="M1381.86 742.61C1381.66 743.04 1380.86 743.41 1379.72 743.74C1377.05 744.377 1374.33 744.821 1371.59 745.07C1371.59 745.07 1354.59 743.72 1354.83 736.01C1355.01 730.48 1362.69 729.01 1367 728.68C1367.95 728.591 1368.91 728.551 1369.87 728.56C1369.87 728.56 1382.59 741.03 1381.86 742.61Z" fill="#AE6E79"/>
<path opacity="0.1" d="M1381.86 742.61C1381.66 743.04 1380.86 743.41 1379.72 743.74C1375.29 737.81 1369.11 730.2 1366.08 729.53L1367 728.68C1367.95 728.591 1368.91 728.551 1369.87 728.56C1369.87 728.56 1382.59 741.03 1381.86 742.61Z" fill="black"/>
<path d="M1377.58 637.08L1382.58 637.82C1384.39 641 1386.39 644.063 1388.58 646.99C1389.92 648.66 1390.69 650.718 1390.78 652.86C1390.78 652.86 1398.12 663.74 1400.44 664.96C1402.76 666.18 1406.31 674.5 1406.31 674.5C1406.31 674.5 1412.06 678.29 1412.06 682.57C1412.16 686.139 1412.53 689.696 1413.16 693.21C1413.29 693.82 1412.31 701.41 1409.86 705.21C1407.41 709.01 1404.96 717.39 1405.09 718.89C1405.22 720.39 1398.24 728.19 1396.29 730.63C1394.66 732.912 1393.23 735.327 1392.01 737.85L1385.53 750.08C1385.53 750.08 1371.83 729.9 1366.82 728.8C1366.82 728.8 1372.44 723.42 1375.25 722.44C1378.06 721.46 1380.76 713.44 1380.88 711.56C1381 709.68 1383.45 703.61 1386.01 702.56C1388.57 701.51 1389.93 700.36 1388.83 698.64C1387.73 696.92 1388.83 693.64 1388.83 693.64C1388.83 693.64 1381.61 684.1 1380.63 678.64C1379.65 673.18 1373.05 669.47 1373.05 669.47L1369.26 660.17L1377.58 637.08Z" fill="#F05E3C"/>
<path opacity="0.1" d="M1395.77 682.73C1398.54 680.394 1402.02 679.074 1405.64 678.99C1403.32 679.39 1400.88 679.9 1399.18 681.52C1398.51 682.221 1397.91 682.985 1397.39 683.8C1396.81 684.63 1392.09 690.63 1391.39 689.68C1390.22 688.29 1394.82 683.54 1395.77 682.73Z" fill="black"/>
<path opacity="0.1" d="M1384.69 676.94C1385.44 676.875 1386.16 676.613 1386.77 676.178C1387.38 675.744 1387.87 675.155 1388.18 674.47C1388.78 673.092 1389.14 671.626 1389.27 670.13C1389.63 667.626 1390.13 665.145 1390.78 662.7C1390.97 662.217 1391.06 661.696 1391.02 661.176C1390.98 660.656 1390.83 660.152 1390.57 659.7C1390.3 658.919 1389.94 658.173 1389.49 657.48C1388.59 658.48 1388.33 660.81 1387.96 662.15C1387.5 663.81 1387.08 665.48 1386.68 667.15C1386.47 667.95 1384.81 676.94 1384.69 676.94Z" fill="black"/>
<path opacity="0.1" d="M1380.36 627.57C1379.87 628.215 1379.3 628.799 1378.67 629.31C1376.67 630.9 1374.02 632.24 1373.77 634.75C1373.84 635.565 1373.74 636.387 1373.47 637.16C1372.83 638.26 1371.26 638.16 1370.01 637.95C1368.96 637.855 1367.94 637.482 1367.08 636.87C1365.77 635.75 1365.65 633.75 1364.65 632.34C1364.04 631.612 1363.28 631.034 1362.41 630.651C1361.54 630.268 1360.6 630.089 1359.65 630.13C1357.78 630.07 1355.92 630.49 1354.05 630.57C1352.85 630.631 1351.64 630.55 1350.46 630.33C1350.07 630.27 1349.68 630.19 1349.3 630.09C1348.46 629.884 1347.65 629.607 1346.86 629.26C1346.45 629.098 1346.05 628.911 1345.67 628.7C1344.42 628.057 1343.26 627.25 1342.22 626.3C1340.39 624.62 1338.87 622.3 1339.02 619.81C1339.11 618.28 1339.8 616.87 1340.02 615.36C1340.77 611.04 1337.9 606.96 1334.79 603.87C1333.55 602.64 1332.23 601.45 1330.99 600.2C1329.06 598.419 1327.53 596.243 1326.52 593.82C1325.69 591.241 1325.41 588.513 1325.72 585.82C1326 583.09 1326.08 580.342 1325.95 577.6C1325.03 567.88 1316.73 560.43 1308.43 556.38L1308.06 556.19C1310.52 553.364 1313.55 551.09 1316.95 549.515C1320.36 547.94 1324.05 547.1 1327.8 547.05C1331.55 547 1335.26 547.742 1338.7 549.226C1342.15 550.71 1345.24 552.903 1347.77 555.662C1350.31 558.422 1352.23 561.685 1353.42 565.24C1354.61 568.794 1355.04 572.559 1354.68 576.289C1354.31 580.02 1353.16 583.631 1351.31 586.888C1349.45 590.145 1346.93 592.974 1343.91 595.19C1343.82 595.5 1343.74 595.81 1343.67 596.11C1341.75 603.79 1343.02 608.45 1344.45 611.02C1344.84 611.11 1358.56 614.21 1360.37 616.02C1362.18 617.83 1373.37 620.42 1373.37 620.42C1375.07 620.873 1376.62 621.776 1377.85 623.034C1379.08 624.293 1379.95 625.86 1380.36 627.57V627.57Z" fill="black"/>
<path d="M1306.3 549.14C1306.85 548.51 1307.68 548.19 1308.24 547.58C1309.97 545.7 1308.24 542.63 1308.87 540.15C1309.55 537.4 1312.93 536.2 1315.75 536.49C1318.57 536.78 1321.21 538.08 1324.03 538.4C1328.41 538.89 1332.65 536.99 1336.92 535.88C1341.19 534.77 1346.35 534.71 1349.29 537.98C1352.23 541.25 1352.03 546.82 1355.69 549.19C1357.38 550.28 1359.51 550.4 1361.34 551.19C1363.34 552.218 1365 553.806 1366.12 555.76C1369.02 560.31 1370.29 565.705 1369.74 571.07C1369.43 573.97 1368.59 576.79 1368.25 579.69C1367.9 582.702 1368.11 585.751 1368.85 588.69C1369.62 591.69 1371.29 594.93 1374.28 595.89C1374.97 596.042 1375.64 596.274 1376.28 596.58C1378.01 597.66 1377.78 600.2 1377.34 602.18L1375.56 610.39C1377.27 611.69 1379.93 611.13 1381.56 612.5C1382.21 613.097 1382.7 613.856 1382.96 614.7C1383.76 616.996 1383.85 619.482 1383.21 621.829C1382.57 624.175 1381.23 626.272 1379.37 627.84C1377.37 629.43 1374.72 630.77 1374.47 633.27C1374.55 634.086 1374.44 634.908 1374.17 635.68C1373.54 636.78 1371.96 636.68 1370.71 636.47C1369.66 636.373 1368.65 636.001 1367.79 635.39C1366.47 634.27 1366.36 632.27 1365.36 630.86C1364.75 630.133 1363.98 629.556 1363.12 629.173C1362.25 628.79 1361.31 628.611 1360.36 628.65C1358.48 628.59 1356.63 629.01 1354.75 629.1C1350.41 629.278 1346.18 627.748 1342.96 624.84C1341.12 623.15 1339.61 620.84 1339.75 618.34C1339.84 616.82 1340.53 615.4 1340.75 613.89C1341.49 609.58 1338.63 605.49 1335.52 602.4C1332.41 599.31 1328.76 596.46 1327.24 592.35C1325.34 587.26 1327.18 581.58 1326.67 576.18C1325.75 566.45 1317.46 559.01 1309.15 554.95C1307.3 554 1304.15 551.59 1306.3 549.14Z" fill="#444053"/>
<path opacity="0.1" d="M1371.7 633.12C1370.38 631.99 1370.27 630 1369.27 628.59C1368.66 627.863 1367.89 627.285 1367.03 626.9C1366.16 626.515 1365.22 626.334 1364.27 626.37C1362.39 626.31 1360.53 626.73 1358.66 626.82C1354.31 627.011 1350.06 625.477 1346.83 622.55C1344.99 620.87 1343.49 618.55 1343.63 616.06C1343.72 614.53 1344.41 613.11 1344.63 611.61C1345.38 607.29 1342.51 603.2 1339.4 600.11C1336.29 597.02 1332.65 594.17 1331.12 590.06C1329.23 584.98 1331.12 579.3 1330.56 573.89C1329.63 564.16 1321.34 556.72 1313.04 552.66C1311.1 551.71 1307.95 549.3 1310.1 546.85C1310.64 546.22 1311.47 545.9 1312.03 545.29C1313.76 543.42 1312.03 540.34 1312.67 537.87C1312.79 537.378 1313.01 536.914 1313.3 536.5C1311.21 536.89 1309.3 538.07 1308.79 540.07C1308.18 542.55 1309.89 545.62 1308.16 547.5C1307.6 548.11 1306.77 548.43 1306.22 549.05C1304.07 551.5 1307.22 553.92 1309.16 554.86C1317.47 558.92 1325.76 566.37 1326.68 576.09C1327.19 581.5 1325.35 587.18 1327.25 592.27C1328.77 596.37 1332.42 599.27 1335.53 602.32C1338.64 605.37 1341.53 609.49 1340.76 613.81C1340.34 615.272 1340 616.758 1339.76 618.26C1339.62 620.75 1341.13 623.07 1342.97 624.75C1346.19 627.678 1350.44 629.213 1354.79 629.02C1356.67 628.93 1358.52 628.52 1360.4 628.57C1361.35 628.534 1362.29 628.716 1363.16 629.101C1364.02 629.486 1364.79 630.063 1365.4 630.79C1366.4 632.2 1366.51 634.2 1367.83 635.32C1368.69 635.927 1369.7 636.296 1370.75 636.39C1372 636.62 1373.58 636.7 1374.21 635.61C1374.43 635.165 1374.53 634.667 1374.49 634.17C1373.48 634.071 1372.52 633.709 1371.7 633.12V633.12Z" fill="black"/>
<path d="M1226.13 573.69H1156.96V505.53H1226.18L1226.13 573.69ZM1225.13 470.92H1157.96C1157.96 365 1258.64 371.19 1258.64 304.18C1258.64 267.27 1228.43 237.7 1191.52 237.7C1154.61 237.7 1124.41 269.58 1124.41 305.23H1057.29C1057.26 287.594 1060.71 270.126 1067.45 253.827C1074.18 237.527 1084.07 222.718 1096.54 210.248C1109.01 197.777 1123.82 187.891 1140.12 181.156C1156.42 174.421 1173.88 170.97 1191.52 171C1265.66 171 1325.75 230.15 1325.75 304.18C1325.75 387.97 1225.08 397.51 1225.08 470.92H1225.13Z" fill="#F05E3C"/>
<path opacity="0.1" d="M881.14 553.39H863.3V535.77H881.14V553.39ZM880.87 526.89H863.57C863.57 499.59 889.52 501.18 889.52 483.89C889.511 481.628 889.056 479.39 888.182 477.303C887.307 475.217 886.03 473.323 884.423 471.731C882.817 470.138 880.912 468.877 878.818 468.021C876.724 467.165 874.482 466.729 872.22 466.74C867.651 466.846 863.301 468.717 860.083 471.961C856.865 475.206 855.029 479.571 854.96 484.14H837.66C837.775 475.061 841.453 466.39 847.901 459.998C854.35 453.605 863.052 450.003 872.132 449.968C881.212 449.932 889.942 453.467 896.44 459.809C902.939 466.15 906.684 474.792 906.87 483.87C906.82 505.47 880.87 507.93 880.87 526.85V526.89Z" fill="#6C63FF"/>
<path opacity="0.1" d="M1016.22 675.8H998.38V658.23H1016.22V675.8ZM1015.96 649.31H998.66C998.66 622 1024.61 623.6 1024.61 606.31C1024.6 604.048 1024.15 601.811 1023.27 599.725C1022.4 597.639 1021.12 595.746 1019.51 594.154C1017.91 592.562 1016 591.303 1013.91 590.447C1011.81 589.592 1009.57 589.158 1007.31 589.17C1002.72 589.253 998.347 591.117 995.109 594.368C991.871 597.619 990.024 602.002 989.96 606.59H972.66C972.775 597.511 976.453 588.84 982.901 582.448C989.35 576.055 998.052 572.453 1007.13 572.418C1016.21 572.382 1024.94 575.917 1031.44 582.259C1037.94 588.6 1041.68 597.242 1041.87 606.32C1041.9 627.92 1015.96 630.39 1015.96 649.31Z" fill="#6C63FF"/>
<path opacity="0.1" d="M1016.22 675.8H998.38V658.23H1016.22V675.8ZM1015.96 649.31H998.66C998.66 622 1024.61 623.6 1024.61 606.31C1024.6 604.048 1024.15 601.811 1023.27 599.725C1022.4 597.639 1021.12 595.746 1019.51 594.154C1017.91 592.562 1016 591.303 1013.91 590.447C1011.81 589.592 1009.57 589.158 1007.31 589.17C1002.72 589.253 998.347 591.117 995.109 594.368C991.871 597.619 990.024 602.002 989.96 606.59H972.66C972.775 597.511 976.453 588.84 982.901 582.448C989.35 576.055 998.052 572.453 1007.13 572.418C1016.21 572.382 1024.94 575.917 1031.44 582.259C1037.94 588.6 1041.68 597.242 1041.87 606.32C1041.9 627.92 1015.96 630.39 1015.96 649.31Z" fill="#6C63FF"/>
<path opacity="0.1" d="M1098.36 459.1H1085.43V446.39H1098.36V459.1ZM1098.17 439.89H1085.63C1085.63 420.11 1104.44 421.26 1104.44 408.74C1104.43 407.101 1104.1 405.48 1103.47 403.969C1102.83 402.458 1101.91 401.086 1100.74 399.933C1099.58 398.78 1098.2 397.867 1096.68 397.247C1095.16 396.627 1093.54 396.312 1091.9 396.32C1088.58 396.387 1085.42 397.741 1083.08 400.095C1080.74 402.45 1079.41 405.621 1079.36 408.94H1066.82C1066.79 402.288 1069.41 395.899 1074.1 391.176C1078.78 386.454 1085.15 383.787 1091.8 383.76C1098.45 383.733 1104.84 386.35 1109.56 391.035C1114.29 395.72 1116.95 402.088 1116.98 408.74C1116.96 424.39 1098.17 426.18 1098.17 439.89V439.89Z" fill="#6C63FF"/>
<path opacity="0.1" d="M1319.2 477.04H1311.89V469.84H1319.2V477.04ZM1319.09 466.19H1311.96C1311.96 455.01 1322.59 455.66 1322.59 448.58C1322.59 447.654 1322.41 446.737 1322.05 445.883C1321.69 445.028 1321.17 444.253 1320.51 443.602C1319.85 442.951 1319.07 442.437 1318.21 442.09C1317.35 441.743 1316.44 441.569 1315.51 441.58C1313.63 441.619 1311.85 442.383 1310.53 443.713C1309.2 445.043 1308.45 446.835 1308.42 448.71H1301.33C1301.41 445.015 1302.94 441.498 1305.57 438.908C1308.21 436.319 1311.76 434.862 1315.45 434.848C1319.15 434.833 1322.7 436.263 1325.36 438.832C1328.02 441.4 1329.57 444.905 1329.68 448.6C1329.72 457.39 1319.09 458.44 1319.09 466.19V466.19Z" fill="#6C63FF"/>
<path opacity="0.1" d="M1430.96 804.51H1423.65V797.31H1430.96V804.51ZM1430.85 793.66H1423.76C1423.76 782.47 1434.4 783.13 1434.4 776.05C1434.39 774.182 1433.63 772.396 1432.3 771.083C1430.97 769.771 1429.18 769.039 1427.31 769.05C1425.43 769.086 1423.65 769.85 1422.32 771.181C1421 772.511 1420.25 774.304 1420.22 776.18H1413.13C1413.21 772.485 1414.74 768.968 1417.37 766.378C1420.01 763.789 1423.56 762.332 1427.25 762.318C1430.95 762.303 1434.5 763.733 1437.16 766.302C1439.82 768.87 1441.37 772.375 1441.48 776.07C1441.52 784.9 1430.89 785.91 1430.89 793.66H1430.85Z" fill="#6C63FF"/>
</g>
<path opacity="0.1" d="M44.22 103.8H26.38V86.23H44.22V103.8ZM43.96 77.31H26.66C26.66 50 52.61 51.6 52.61 34.31C52.6008 32.0483 52.146 29.8105 51.2713 27.7247C50.3967 25.6389 49.1195 23.7459 47.5128 22.154C45.9061 20.5622 44.0013 19.3026 41.9075 18.4474C39.8136 17.5922 37.5717 17.1582 35.31 17.17C30.7223 17.2526 26.3466 19.1167 23.1086 22.3677C19.8705 25.6188 18.0242 30.002 17.96 34.59H0.660034C0.774833 25.5108 4.45297 16.8402 10.9015 10.4479C17.35 4.05548 26.0523 0.453258 35.1322 0.417836C44.2121 0.382413 52.9423 3.91663 59.4405 10.2585C65.9387 16.6004 69.6843 25.2419 69.87 34.32C69.9 55.92 43.96 58.39 43.96 77.31Z" fill="#F05E3C"/>
<defs>
<linearGradient id="paint0_linear" x1="1297.2" y1="1003.05" x2="1297.2" y2="534.3" gradientUnits="userSpaceOnUse">
<stop stop-color="#808080" stop-opacity="0.25"/>
<stop offset="0.54" stop-color="#808080" stop-opacity="0.12"/>
<stop offset="1" stop-color="#808080" stop-opacity="0.1"/>
</linearGradient>
<clipPath id="clip0">
<rect width="1003.92" height="836.78" fill="white" transform="translate(600 171)"/>
</clipPath>
</defs>
</svg>
